<svg width="56" height="56" viewBox="0 0 56 56" fill="none" xmlns="http://www.w3.org/2000/svg">
<circle cx="28" cy="28" r="28" fill="#FFD43C"/>
<path d="M32.3265 12.0462L32.3268 12.046C32.3884 11.9848 32.4882 11.9845 32.5504 12.0462L36.9533 16.416C36.9533 16.416 36.9533 16.416 36.9533 16.416C36.9714 16.434 36.9918 16.4719 36.9918 16.5271C36.9918 16.5822 36.9714 16.6199 36.9535 16.6377L36.9533 16.6379L25.8763 27.6348L25.5087 27.9998L25.8763 28.3647L36.9536 39.3613C36.9848 39.3923 37 39.4313 37 39.4722C37 39.5131 36.9848 39.5521 36.9536 39.5831L32.5507 43.9539C32.5209 43.9835 32.4806 44 32.439 44C32.3973 44 32.3569 43.9835 32.3272 43.954C32.3272 43.954 32.3272 43.9539 32.3272 43.9539L16.3677 28.1103L16 28.4753L16.3677 28.1103C16.3497 28.0926 16.3292 28.0547 16.3292 27.9994C16.3292 27.9441 16.3497 27.9063 16.3676 27.8885L32.3265 12.0462Z" stroke="#161616"/>
</svg>
