<svg width="56" height="56" viewBox="0 0 56 56" fill="none" xmlns="http://www.w3.org/2000/svg">
<circle cx="28" cy="28" r="28" transform="rotate(180 28 28)" fill="#FFD43C"/>
<path d="M23.6735 43.9538L23.6732 43.954C23.6116 44.0152 23.5118 44.0155 23.4496 43.9538L19.0467 39.584C19.0467 39.584 19.0467 39.584 19.0467 39.584C19.0286 39.566 19.0082 39.5281 19.0082 39.4729C19.0082 39.4178 19.0286 39.3801 19.0465 39.3623L19.0467 39.3621L30.1237 28.3652L30.4913 28.0002L30.1237 27.6353L19.0464 16.6387C19.0152 16.6077 19 16.5687 19 16.5278C19 16.4869 19.0152 16.4479 19.0464 16.4169L23.4493 12.0461C23.4791 12.0165 23.5194 12 23.561 12C23.6027 12 23.6431 12.0165 23.6728 12.046C23.6728 12.046 23.6728 12.046 23.6728 12.0461L39.6323 27.8897L40 27.5247L39.6323 27.8897C39.6503 27.9074 39.6708 27.9453 39.6708 28.0006C39.6708 28.0559 39.6503 28.0937 39.6324 28.1115L23.6735 43.9538Z" stroke="#161616"/>
</svg>
