<?xml version="1.0" encoding="UTF-8"?>
<!DOCTYPE svg PUBLIC "-//W3C//DTD SVG 1.1//EN" "http://www.w3.org/Graphics/SVG/1.1/DTD/svg11.dtd">
<!-- Creator: CorelDRAW X7 -->
<svg xmlns="http://www.w3.org/2000/svg" xml:space="preserve" width="10.7995mm" height="10.5835mm" version="1.1" style="shape-rendering:geometricPrecision; text-rendering:geometricPrecision; image-rendering:optimizeQuality; fill-rule:evenodd; clip-rule:evenodd"
viewBox="0 0 1075 1054"
 xmlns:xlink="http://www.w3.org/1999/xlink">
 <defs>
  <style type="text/css">
   <![CDATA[
    .fil0 {fill:#FEFEFE}
   ]]>
  </style>
 </defs>
 <g id="Слой_x0020_1">
  <metadata id="CorelCorpID_0Corel-Layer"/>
  <path class="fil0" d="M565 1054c-151,0 -293,-58 -400,-162 -106,-105 -165,-244 -165,-392 0,-103 29,-203 84,-290 54,-87 132,-158 226,-204 9,-5 20,-7 31,-6 10,2 20,6 29,13 8,6 14,15 17,25 3,11 3,21 0,31 -27,85 -29,174 -8,260 22,85 67,163 130,225 46,45 100,81 160,106 60,24 124,36 189,36 50,0 99,-7 146,-21 11,-3 22,-4 32,-1 10,3 19,9 26,17 7,8 12,18 13,29 1,10 -1,21 -6,30 -47,92 -119,168 -208,222 -89,53 -192,82 -296,82zm-257 -967c-73,43 -132,104 -174,176 -41,72 -63,154 -62,237 0,266 221,483 493,483 85,1 168,-21 242,-61 73,-41 135,-99 179,-170 -42,10 -85,15 -128,14 -74,1 -148,-14 -216,-42 -69,-27 -131,-68 -183,-120 -68,-66 -118,-149 -144,-239 -27,-91 -29,-186 -7,-278l0 0z"/>
 </g>
</svg>
